<mxfile host="app.diagrams.net" agent="Mozilla/5.0 (Macintosh; Intel Mac OS X 10_15_7) AppleWebKit/537.36 (KHTML, like Gecko) Chrome/129.0.0.0 Safari/537.36" version="24.8.4">
  <diagram name="Page-1" id="UPrwySYPYJs5x2vG1ysu">
    <mxGraphModel dx="1476" dy="1039" grid="1" gridSize="10" guides="1" tooltips="1" connect="1" arrows="1" fold="1" page="1" pageScale="1" pageWidth="827" pageHeight="1169" math="0" shadow="0">
      <root>
        <mxCell id="0" />
        <mxCell id="1" parent="0" />
        <mxCell id="Kq7zkqHO3u8WihTtwUso-3" value="" style="edgeStyle=orthogonalEdgeStyle;rounded=0;orthogonalLoop=1;jettySize=auto;html=1;" edge="1" parent="1" source="Kq7zkqHO3u8WihTtwUso-1" target="Kq7zkqHO3u8WihTtwUso-2">
          <mxGeometry relative="1" as="geometry">
            <Array as="points">
              <mxPoint x="330" y="330" />
              <mxPoint x="330" y="280" />
            </Array>
          </mxGeometry>
        </mxCell>
        <mxCell id="Kq7zkqHO3u8WihTtwUso-5" value="" style="edgeStyle=orthogonalEdgeStyle;rounded=0;orthogonalLoop=1;jettySize=auto;html=1;" edge="1" parent="1" source="Kq7zkqHO3u8WihTtwUso-1" target="Kq7zkqHO3u8WihTtwUso-4">
          <mxGeometry relative="1" as="geometry">
            <Array as="points">
              <mxPoint x="330" y="330" />
              <mxPoint x="330" y="380" />
            </Array>
          </mxGeometry>
        </mxCell>
        <mxCell id="Kq7zkqHO3u8WihTtwUso-1" value="Payment Check out form" style="rounded=0;whiteSpace=wrap;html=1;" vertex="1" parent="1">
          <mxGeometry x="170" y="300" width="120" height="60" as="geometry" />
        </mxCell>
        <mxCell id="Kq7zkqHO3u8WihTtwUso-7" value="" style="edgeStyle=orthogonalEdgeStyle;rounded=0;orthogonalLoop=1;jettySize=auto;html=1;" edge="1" parent="1" source="Kq7zkqHO3u8WihTtwUso-2" target="Kq7zkqHO3u8WihTtwUso-6">
          <mxGeometry relative="1" as="geometry" />
        </mxCell>
        <mxCell id="Kq7zkqHO3u8WihTtwUso-2" value="Stripe Button" style="rounded=0;whiteSpace=wrap;html=1;" vertex="1" parent="1">
          <mxGeometry x="354" y="240" width="120" height="60" as="geometry" />
        </mxCell>
        <mxCell id="Kq7zkqHO3u8WihTtwUso-9" value="" style="edgeStyle=orthogonalEdgeStyle;rounded=0;orthogonalLoop=1;jettySize=auto;html=1;" edge="1" parent="1" source="Kq7zkqHO3u8WihTtwUso-4" target="Kq7zkqHO3u8WihTtwUso-8">
          <mxGeometry relative="1" as="geometry" />
        </mxCell>
        <mxCell id="Kq7zkqHO3u8WihTtwUso-4" value="Humm Button" style="rounded=0;whiteSpace=wrap;html=1;" vertex="1" parent="1">
          <mxGeometry x="350" y="340" width="120" height="60" as="geometry" />
        </mxCell>
        <mxCell id="Kq7zkqHO3u8WihTtwUso-11" value="" style="edgeStyle=orthogonalEdgeStyle;rounded=0;orthogonalLoop=1;jettySize=auto;html=1;" edge="1" parent="1" source="Kq7zkqHO3u8WihTtwUso-6" target="Kq7zkqHO3u8WihTtwUso-10">
          <mxGeometry relative="1" as="geometry" />
        </mxCell>
        <mxCell id="Kq7zkqHO3u8WihTtwUso-6" value="Ecommerce CMS Orders" style="rounded=0;whiteSpace=wrap;html=1;" vertex="1" parent="1">
          <mxGeometry x="510" y="240" width="120" height="60" as="geometry" />
        </mxCell>
        <mxCell id="Kq7zkqHO3u8WihTtwUso-16" value="" style="edgeStyle=orthogonalEdgeStyle;rounded=0;orthogonalLoop=1;jettySize=auto;html=1;" edge="1" parent="1" source="Kq7zkqHO3u8WihTtwUso-8" target="Kq7zkqHO3u8WihTtwUso-15">
          <mxGeometry relative="1" as="geometry" />
        </mxCell>
        <mxCell id="Kq7zkqHO3u8WihTtwUso-18" style="edgeStyle=orthogonalEdgeStyle;rounded=0;orthogonalLoop=1;jettySize=auto;html=1;entryX=0;entryY=0.75;entryDx=0;entryDy=0;" edge="1" parent="1" source="Kq7zkqHO3u8WihTtwUso-8" target="Kq7zkqHO3u8WihTtwUso-12">
          <mxGeometry relative="1" as="geometry" />
        </mxCell>
        <mxCell id="Kq7zkqHO3u8WihTtwUso-8" value="CMS Humm Order Purchase" style="rounded=0;whiteSpace=wrap;html=1;" vertex="1" parent="1">
          <mxGeometry x="510" y="337.5" width="120" height="65" as="geometry" />
        </mxCell>
        <mxCell id="Kq7zkqHO3u8WihTtwUso-10" value="Shipping, Confirm from Webflow" style="rounded=0;whiteSpace=wrap;html=1;" vertex="1" parent="1">
          <mxGeometry x="670" y="240" width="120" height="60" as="geometry" />
        </mxCell>
        <mxCell id="Kq7zkqHO3u8WihTtwUso-12" value="Shipping" style="rounded=0;whiteSpace=wrap;html=1;" vertex="1" parent="1">
          <mxGeometry x="670" y="440" width="120" height="60" as="geometry" />
        </mxCell>
        <mxCell id="Kq7zkqHO3u8WihTtwUso-17" value="" style="edgeStyle=orthogonalEdgeStyle;rounded=0;orthogonalLoop=1;jettySize=auto;html=1;" edge="1" parent="1" source="Kq7zkqHO3u8WihTtwUso-8" target="Kq7zkqHO3u8WihTtwUso-15">
          <mxGeometry relative="1" as="geometry">
            <mxPoint x="630" y="370" as="sourcePoint" />
            <mxPoint x="730" y="420" as="targetPoint" />
          </mxGeometry>
        </mxCell>
        <mxCell id="Kq7zkqHO3u8WihTtwUso-15" value="Invoice" style="rounded=0;whiteSpace=wrap;html=1;" vertex="1" parent="1">
          <mxGeometry x="670" y="340" width="120" height="60" as="geometry" />
        </mxCell>
      </root>
    </mxGraphModel>
  </diagram>
</mxfile>
